<svg width="26" height="20" viewBox="0 0 26 20" fill="none" xmlns="http://www.w3.org/2000/svg">
<path d="M21 1V19C21 19.6 20.6 20 20 20H19C18.4 20 18 19.6 18 19V13H8V19C8 19.6 7.6 20 7 20H6C5.4 20 5 19.6 5 19V1C5 0.4 5.4 0 6 0H7C7.6 0 8 0.4 8 1V7H18V1C18 0.4 18.4 0 19 0H20C20.6 0 21 0.4 21 1ZM1 4V8C0.4 8 0 8.4 0 9V11C0 11.6 0.4 12 1 12V16C1 16.6 1.4 17 2 17H3V3H2C1.4 3 1 3.4 1 4ZM25 8V4C25 3.4 24.6 3 24 3H23V17H24C24.6 17 25 16.6 25 16V12C25.6 12 26 11.6 26 11V9C26 8.4 25.6 8 25 8Z" fill="white"/>
</svg>
